<mxfile host="app.diagrams.net" agent="Mozilla/5.0 (X11; Linux x86_64; rv:142.0) Gecko/20100101 Firefox/142.0" version="28.1.1">
  <diagram name="Page-1" id="4tBG3vOSpLR7cBJxTsAA">
    <mxGraphModel dx="893" dy="472" grid="1" gridSize="10" guides="1" tooltips="1" connect="1" arrows="1" fold="1" page="1" pageScale="1" pageWidth="827" pageHeight="1169" math="0" shadow="0">
      <root>
        <mxCell id="0" />
        <mxCell id="1" parent="0" />
        <mxCell id="09oOiPNTUxZqOLBFb-YE-54" value="" style="rounded=0;whiteSpace=wrap;html=1;strokeColor=none;" vertex="1" parent="1">
          <mxGeometry x="40" y="70" width="780" height="420" as="geometry" />
        </mxCell>
        <mxCell id="09oOiPNTUxZqOLBFb-YE-1" value="" style="verticalLabelPosition=bottom;shadow=0;dashed=0;align=center;html=1;verticalAlign=top;shape=mxgraph.electrical.transistors.npn_transistor_5;" vertex="1" parent="1">
          <mxGeometry x="350" y="320" width="80" height="100" as="geometry" />
        </mxCell>
        <mxCell id="09oOiPNTUxZqOLBFb-YE-2" value="&lt;font style=&quot;font-size: 20px;&quot;&gt;R&lt;sub&gt;B&lt;/sub&gt;&lt;/font&gt;" style="pointerEvents=1;verticalLabelPosition=bottom;shadow=0;dashed=0;align=center;html=1;verticalAlign=top;shape=mxgraph.electrical.resistors.resistor_1;" vertex="1" parent="1">
          <mxGeometry x="220" y="360" width="100" height="20" as="geometry" />
        </mxCell>
        <mxCell id="09oOiPNTUxZqOLBFb-YE-6" value="" style="pointerEvents=1;fillColor=strokeColor;verticalLabelPosition=bottom;shadow=0;dashed=0;align=center;html=1;verticalAlign=top;shape=mxgraph.electrical.diodes.diode;rotation=90;" vertex="1" parent="1">
          <mxGeometry x="370" y="200" width="100" height="60" as="geometry" />
        </mxCell>
        <mxCell id="09oOiPNTUxZqOLBFb-YE-7" value="" style="endArrow=none;html=1;rounded=0;entryX=1;entryY=0.5;entryDx=0;entryDy=0;entryPerimeter=0;exitX=1;exitY=0;exitDx=0;exitDy=0;exitPerimeter=0;" edge="1" parent="1" source="09oOiPNTUxZqOLBFb-YE-1" target="09oOiPNTUxZqOLBFb-YE-6">
          <mxGeometry width="50" height="50" relative="1" as="geometry">
            <mxPoint x="360" y="340" as="sourcePoint" />
            <mxPoint x="410" y="290" as="targetPoint" />
          </mxGeometry>
        </mxCell>
        <mxCell id="09oOiPNTUxZqOLBFb-YE-8" value="" style="pointerEvents=1;verticalLabelPosition=bottom;shadow=0;dashed=0;align=center;html=1;verticalAlign=top;shape=mxgraph.electrical.resistors.resistor_1;rotation=90;" vertex="1" parent="1">
          <mxGeometry x="370" y="130" width="100" height="20" as="geometry" />
        </mxCell>
        <mxCell id="09oOiPNTUxZqOLBFb-YE-9" value="" style="endArrow=none;html=1;rounded=0;entryX=0;entryY=0.5;entryDx=0;entryDy=0;entryPerimeter=0;exitX=1;exitY=0.5;exitDx=0;exitDy=0;exitPerimeter=0;" edge="1" parent="1" source="09oOiPNTUxZqOLBFb-YE-11" target="09oOiPNTUxZqOLBFb-YE-8">
          <mxGeometry width="50" height="50" relative="1" as="geometry">
            <mxPoint x="360" y="80" as="sourcePoint" />
            <mxPoint x="250" y="170" as="targetPoint" />
            <Array as="points">
              <mxPoint x="120" y="80" />
              <mxPoint x="420" y="80" />
            </Array>
          </mxGeometry>
        </mxCell>
        <mxCell id="09oOiPNTUxZqOLBFb-YE-10" value="" style="ellipse;whiteSpace=wrap;html=1;aspect=fixed;" vertex="1" parent="1">
          <mxGeometry x="180" y="365" width="10" height="10" as="geometry" />
        </mxCell>
        <mxCell id="09oOiPNTUxZqOLBFb-YE-11" value="" style="verticalLabelPosition=bottom;shadow=0;dashed=0;align=center;fillColor=strokeColor;html=1;verticalAlign=top;strokeWidth=1;shape=mxgraph.electrical.miscellaneous.monocell_battery;rotation=-90;" vertex="1" parent="1">
          <mxGeometry x="70" y="230" width="100" height="60" as="geometry" />
        </mxCell>
        <mxCell id="09oOiPNTUxZqOLBFb-YE-13" value="" style="endArrow=none;html=1;rounded=0;exitX=1;exitY=0.5;exitDx=0;exitDy=0;entryX=0;entryY=0.5;entryDx=0;entryDy=0;entryPerimeter=0;" edge="1" parent="1" source="09oOiPNTUxZqOLBFb-YE-10" target="09oOiPNTUxZqOLBFb-YE-2">
          <mxGeometry width="50" height="50" relative="1" as="geometry">
            <mxPoint x="240" y="370" as="sourcePoint" />
            <mxPoint x="410" y="270" as="targetPoint" />
          </mxGeometry>
        </mxCell>
        <mxCell id="09oOiPNTUxZqOLBFb-YE-14" value="" style="endArrow=none;html=1;rounded=0;entryX=1;entryY=1;entryDx=0;entryDy=0;entryPerimeter=0;exitX=0;exitY=0.5;exitDx=0;exitDy=0;exitPerimeter=0;" edge="1" parent="1" source="09oOiPNTUxZqOLBFb-YE-11" target="09oOiPNTUxZqOLBFb-YE-1">
          <mxGeometry width="50" height="50" relative="1" as="geometry">
            <mxPoint x="120" y="440" as="sourcePoint" />
            <mxPoint x="410" y="290" as="targetPoint" />
            <Array as="points">
              <mxPoint x="120" y="480" />
              <mxPoint x="420" y="480" />
            </Array>
          </mxGeometry>
        </mxCell>
        <mxCell id="09oOiPNTUxZqOLBFb-YE-16" value="" style="endArrow=classic;html=1;rounded=0;strokeColor=#3333FF;strokeWidth=2;" edge="1" parent="1">
          <mxGeometry width="50" height="50" relative="1" as="geometry">
            <mxPoint x="80" y="200" as="sourcePoint" />
            <mxPoint x="80" y="320" as="targetPoint" />
          </mxGeometry>
        </mxCell>
        <mxCell id="09oOiPNTUxZqOLBFb-YE-17" value="&lt;font style=&quot;font-size: 20px;&quot;&gt;U&lt;sub&gt;S&lt;/sub&gt;&lt;/font&gt;" style="edgeLabel;html=1;align=center;verticalAlign=middle;resizable=0;points=[];labelBackgroundColor=#E6FFCC;" vertex="1" connectable="0" parent="09oOiPNTUxZqOLBFb-YE-16">
          <mxGeometry x="0.0222" y="-2" relative="1" as="geometry">
            <mxPoint x="-18" y="-1" as="offset" />
          </mxGeometry>
        </mxCell>
        <mxCell id="09oOiPNTUxZqOLBFb-YE-18" value="" style="endArrow=classic;html=1;rounded=0;strokeColor=#3333FF;strokeWidth=2;" edge="1" parent="1">
          <mxGeometry width="50" height="50" relative="1" as="geometry">
            <mxPoint x="460" y="100" as="sourcePoint" />
            <mxPoint x="460" y="180" as="targetPoint" />
          </mxGeometry>
        </mxCell>
        <mxCell id="09oOiPNTUxZqOLBFb-YE-19" value="&lt;font style=&quot;font-size: 20px;&quot;&gt;U&lt;sub&gt;R&lt;/sub&gt;&lt;/font&gt;" style="edgeLabel;html=1;align=center;verticalAlign=middle;resizable=0;points=[];labelBackgroundColor=#E6FFCC;" vertex="1" connectable="0" parent="09oOiPNTUxZqOLBFb-YE-18">
          <mxGeometry x="0.0222" y="-2" relative="1" as="geometry">
            <mxPoint x="22" y="-1" as="offset" />
          </mxGeometry>
        </mxCell>
        <mxCell id="09oOiPNTUxZqOLBFb-YE-20" value="" style="endArrow=classic;html=1;rounded=0;strokeColor=#3333FF;strokeWidth=2;" edge="1" parent="1">
          <mxGeometry width="50" height="50" relative="1" as="geometry">
            <mxPoint x="460" y="190" as="sourcePoint" />
            <mxPoint x="460" y="270" as="targetPoint" />
          </mxGeometry>
        </mxCell>
        <mxCell id="09oOiPNTUxZqOLBFb-YE-21" value="&lt;font style=&quot;font-size: 20px;&quot;&gt;U&lt;sub&gt;LED&lt;/sub&gt;&lt;/font&gt;" style="edgeLabel;html=1;align=center;verticalAlign=middle;resizable=0;points=[];labelBackgroundColor=#E6FFCC;" vertex="1" connectable="0" parent="09oOiPNTUxZqOLBFb-YE-20">
          <mxGeometry x="0.0222" y="-2" relative="1" as="geometry">
            <mxPoint x="32" y="-1" as="offset" />
          </mxGeometry>
        </mxCell>
        <mxCell id="09oOiPNTUxZqOLBFb-YE-22" value="" style="endArrow=classic;html=1;rounded=0;strokeColor=#3333FF;strokeWidth=2;" edge="1" parent="1">
          <mxGeometry width="50" height="50" relative="1" as="geometry">
            <mxPoint x="460" y="330" as="sourcePoint" />
            <mxPoint x="460" y="410" as="targetPoint" />
          </mxGeometry>
        </mxCell>
        <mxCell id="09oOiPNTUxZqOLBFb-YE-23" value="&lt;font style=&quot;font-size: 20px;&quot;&gt;U&lt;sub&gt;CE&lt;/sub&gt;&lt;/font&gt;" style="edgeLabel;html=1;align=center;verticalAlign=middle;resizable=0;points=[];labelBackgroundColor=#E6FFCC;" vertex="1" connectable="0" parent="09oOiPNTUxZqOLBFb-YE-22">
          <mxGeometry x="0.0222" y="-2" relative="1" as="geometry">
            <mxPoint x="32" y="-1" as="offset" />
          </mxGeometry>
        </mxCell>
        <mxCell id="09oOiPNTUxZqOLBFb-YE-24" value="&lt;font style=&quot;font-size: 20px;&quot;&gt;Q1&lt;/font&gt;" style="text;html=1;align=center;verticalAlign=middle;whiteSpace=wrap;rounded=0;" vertex="1" parent="1">
          <mxGeometry x="405" y="355" width="30" height="30" as="geometry" />
        </mxCell>
        <mxCell id="09oOiPNTUxZqOLBFb-YE-25" value="" style="endArrow=classic;html=1;rounded=0;strokeColor=#3333FF;strokeWidth=2;" edge="1" parent="1">
          <mxGeometry width="50" height="50" relative="1" as="geometry">
            <mxPoint x="184.67000000000002" y="380" as="sourcePoint" />
            <mxPoint x="185" y="470" as="targetPoint" />
          </mxGeometry>
        </mxCell>
        <mxCell id="09oOiPNTUxZqOLBFb-YE-26" value="&lt;font style=&quot;font-size: 20px;&quot;&gt;U&lt;sub&gt;B&lt;/sub&gt;&lt;/font&gt;" style="edgeLabel;html=1;align=center;verticalAlign=middle;resizable=0;points=[];labelBackgroundColor=#FFCCCC;" vertex="1" connectable="0" parent="09oOiPNTUxZqOLBFb-YE-25">
          <mxGeometry x="0.0222" y="-2" relative="1" as="geometry">
            <mxPoint x="22" y="-1" as="offset" />
          </mxGeometry>
        </mxCell>
        <mxCell id="09oOiPNTUxZqOLBFb-YE-27" value="" style="endArrow=classic;html=1;rounded=0;strokeColor=#3333FF;strokeWidth=2;" edge="1" parent="1">
          <mxGeometry width="50" height="50" relative="1" as="geometry">
            <mxPoint x="230" y="345" as="sourcePoint" />
            <mxPoint x="310" y="345" as="targetPoint" />
          </mxGeometry>
        </mxCell>
        <mxCell id="09oOiPNTUxZqOLBFb-YE-28" value="&lt;font style=&quot;font-size: 20px;&quot;&gt;U&lt;sub&gt;RB&lt;/sub&gt;&lt;/font&gt;" style="edgeLabel;html=1;align=center;verticalAlign=middle;resizable=0;points=[];labelBackgroundColor=#FFCCCC;" vertex="1" connectable="0" parent="09oOiPNTUxZqOLBFb-YE-27">
          <mxGeometry x="0.0222" y="-2" relative="1" as="geometry">
            <mxPoint x="-1" y="-22" as="offset" />
          </mxGeometry>
        </mxCell>
        <mxCell id="09oOiPNTUxZqOLBFb-YE-29" value="C" style="text;html=1;align=center;verticalAlign=middle;whiteSpace=wrap;rounded=0;" vertex="1" parent="1">
          <mxGeometry x="391.82" y="310" width="30" height="30" as="geometry" />
        </mxCell>
        <mxCell id="09oOiPNTUxZqOLBFb-YE-30" value="E" style="text;html=1;align=center;verticalAlign=middle;whiteSpace=wrap;rounded=0;" vertex="1" parent="1">
          <mxGeometry x="391.82" y="400" width="30" height="30" as="geometry" />
        </mxCell>
        <mxCell id="09oOiPNTUxZqOLBFb-YE-31" value="B" style="text;html=1;align=center;verticalAlign=middle;whiteSpace=wrap;rounded=0;" vertex="1" parent="1">
          <mxGeometry x="361.82" y="345" width="30" height="30" as="geometry" />
        </mxCell>
        <mxCell id="09oOiPNTUxZqOLBFb-YE-33" value="" style="endArrow=classic;html=1;rounded=0;strokeColor=#3333FF;strokeWidth=2;" edge="1" parent="1">
          <mxGeometry width="50" height="50" relative="1" as="geometry">
            <mxPoint x="361.82" y="380" as="sourcePoint" />
            <mxPoint x="400" y="420" as="targetPoint" />
          </mxGeometry>
        </mxCell>
        <mxCell id="09oOiPNTUxZqOLBFb-YE-34" value="&lt;font style=&quot;font-size: 20px;&quot;&gt;U&lt;sub&gt;BE&lt;/sub&gt;&lt;/font&gt;" style="edgeLabel;html=1;align=center;verticalAlign=middle;resizable=0;points=[];labelBackgroundColor=#FFCCCC;" vertex="1" connectable="0" parent="09oOiPNTUxZqOLBFb-YE-33">
          <mxGeometry x="0.0222" y="-2" relative="1" as="geometry">
            <mxPoint x="-18" y="13" as="offset" />
          </mxGeometry>
        </mxCell>
        <mxCell id="09oOiPNTUxZqOLBFb-YE-35" value="" style="endArrow=none;html=1;rounded=0;exitX=1;exitY=0.5;exitDx=0;exitDy=0;exitPerimeter=0;entryX=0;entryY=0.5;entryDx=0;entryDy=0;entryPerimeter=0;" edge="1" parent="1" source="09oOiPNTUxZqOLBFb-YE-2" target="09oOiPNTUxZqOLBFb-YE-1">
          <mxGeometry width="50" height="50" relative="1" as="geometry">
            <mxPoint x="330" y="380" as="sourcePoint" />
            <mxPoint x="380" y="330" as="targetPoint" />
          </mxGeometry>
        </mxCell>
        <mxCell id="09oOiPNTUxZqOLBFb-YE-36" value="" style="endArrow=classic;html=1;rounded=0;strokeColor=#FF3333;strokeWidth=2;exitX=1;exitY=0.5;exitDx=0;exitDy=0;exitPerimeter=0;" edge="1" parent="1" source="09oOiPNTUxZqOLBFb-YE-2">
          <mxGeometry width="50" height="50" relative="1" as="geometry">
            <mxPoint x="330" y="370" as="sourcePoint" />
            <mxPoint x="360" y="370" as="targetPoint" />
          </mxGeometry>
        </mxCell>
        <mxCell id="09oOiPNTUxZqOLBFb-YE-37" value="&lt;font style=&quot;font-size: 20px;&quot;&gt;I&lt;sub&gt;B&lt;/sub&gt;&lt;/font&gt;" style="edgeLabel;html=1;align=center;verticalAlign=middle;resizable=0;points=[];" vertex="1" connectable="0" parent="09oOiPNTUxZqOLBFb-YE-36">
          <mxGeometry x="0.1833" y="-3" relative="1" as="geometry">
            <mxPoint x="-3" y="-18" as="offset" />
          </mxGeometry>
        </mxCell>
        <mxCell id="09oOiPNTUxZqOLBFb-YE-38" value="" style="endArrow=classic;html=1;rounded=0;strokeColor=#FF3333;strokeWidth=2;exitX=1;exitY=0.5;exitDx=0;exitDy=0;exitPerimeter=0;" edge="1" parent="1">
          <mxGeometry width="50" height="50" relative="1" as="geometry">
            <mxPoint x="421.15" y="270" as="sourcePoint" />
            <mxPoint x="421.15" y="310" as="targetPoint" />
          </mxGeometry>
        </mxCell>
        <mxCell id="09oOiPNTUxZqOLBFb-YE-39" value="&lt;font style=&quot;font-size: 20px;&quot;&gt;I&lt;sub&gt;C&lt;/sub&gt;&lt;/font&gt;" style="edgeLabel;html=1;align=center;verticalAlign=middle;resizable=0;points=[];" vertex="1" connectable="0" parent="09oOiPNTUxZqOLBFb-YE-38">
          <mxGeometry x="0.1833" y="-3" relative="1" as="geometry">
            <mxPoint x="23" y="-3" as="offset" />
          </mxGeometry>
        </mxCell>
        <mxCell id="09oOiPNTUxZqOLBFb-YE-40" value="" style="endArrow=classic;html=1;rounded=0;strokeColor=#3333FF;strokeWidth=2;" edge="1" parent="1">
          <mxGeometry width="50" height="50" relative="1" as="geometry">
            <mxPoint x="600" y="400" as="sourcePoint" />
            <mxPoint x="600" y="480" as="targetPoint" />
          </mxGeometry>
        </mxCell>
        <mxCell id="09oOiPNTUxZqOLBFb-YE-41" value="&lt;font style=&quot;font-size: 20px;&quot;&gt;U&lt;sub&gt;BE&lt;/sub&gt;&lt;/font&gt;" style="edgeLabel;html=1;align=center;verticalAlign=middle;resizable=0;points=[];labelBackgroundColor=#FFCCCC;" vertex="1" connectable="0" parent="09oOiPNTUxZqOLBFb-YE-40">
          <mxGeometry x="0.0222" y="-2" relative="1" as="geometry">
            <mxPoint x="32" y="-1" as="offset" />
          </mxGeometry>
        </mxCell>
        <mxCell id="09oOiPNTUxZqOLBFb-YE-42" value="" style="endArrow=classic;html=1;rounded=0;strokeColor=#3333FF;strokeWidth=2;" edge="1" parent="1">
          <mxGeometry width="50" height="50" relative="1" as="geometry">
            <mxPoint x="600" y="320" as="sourcePoint" />
            <mxPoint x="600" y="400" as="targetPoint" />
          </mxGeometry>
        </mxCell>
        <mxCell id="09oOiPNTUxZqOLBFb-YE-43" value="&lt;font style=&quot;font-size: 20px;&quot;&gt;U&lt;sub&gt;RB&lt;/sub&gt;&lt;/font&gt;" style="edgeLabel;html=1;align=center;verticalAlign=middle;resizable=0;points=[];labelBackgroundColor=#FFCCCC;" vertex="1" connectable="0" parent="09oOiPNTUxZqOLBFb-YE-42">
          <mxGeometry x="0.0222" y="-2" relative="1" as="geometry">
            <mxPoint x="32" y="-1" as="offset" />
          </mxGeometry>
        </mxCell>
        <mxCell id="09oOiPNTUxZqOLBFb-YE-44" value="" style="endArrow=classic;html=1;rounded=0;strokeColor=#3333FF;strokeWidth=2;" edge="1" parent="1">
          <mxGeometry width="50" height="50" relative="1" as="geometry">
            <mxPoint x="560" y="320" as="sourcePoint" />
            <mxPoint x="560.3299999999999" y="480" as="targetPoint" />
          </mxGeometry>
        </mxCell>
        <mxCell id="09oOiPNTUxZqOLBFb-YE-45" value="&lt;font style=&quot;font-size: 20px;&quot;&gt;U&lt;sub&gt;B&lt;/sub&gt;&lt;/font&gt;" style="edgeLabel;html=1;align=center;verticalAlign=middle;resizable=0;points=[];labelBackgroundColor=#FFCCCC;" vertex="1" connectable="0" parent="09oOiPNTUxZqOLBFb-YE-44">
          <mxGeometry x="0.0222" y="-2" relative="1" as="geometry">
            <mxPoint x="-18" y="-2" as="offset" />
          </mxGeometry>
        </mxCell>
        <mxCell id="09oOiPNTUxZqOLBFb-YE-46" value="" style="endArrow=classic;html=1;rounded=0;strokeColor=#3333FF;strokeWidth=2;" edge="1" parent="1">
          <mxGeometry width="50" height="50" relative="1" as="geometry">
            <mxPoint x="720" y="240" as="sourcePoint" />
            <mxPoint x="720" y="480" as="targetPoint" />
          </mxGeometry>
        </mxCell>
        <mxCell id="09oOiPNTUxZqOLBFb-YE-47" value="&lt;font style=&quot;font-size: 20px;&quot;&gt;U&lt;sub&gt;S&lt;/sub&gt;&lt;/font&gt;" style="edgeLabel;html=1;align=center;verticalAlign=middle;resizable=0;points=[];labelBackgroundColor=#E6FFCC;" vertex="1" connectable="0" parent="09oOiPNTUxZqOLBFb-YE-46">
          <mxGeometry x="0.0222" y="-2" relative="1" as="geometry">
            <mxPoint x="-18" y="-1" as="offset" />
          </mxGeometry>
        </mxCell>
        <mxCell id="09oOiPNTUxZqOLBFb-YE-48" value="" style="endArrow=classic;html=1;rounded=0;strokeColor=#3333FF;strokeWidth=2;" edge="1" parent="1">
          <mxGeometry width="50" height="50" relative="1" as="geometry">
            <mxPoint x="760" y="400" as="sourcePoint" />
            <mxPoint x="760" y="480" as="targetPoint" />
          </mxGeometry>
        </mxCell>
        <mxCell id="09oOiPNTUxZqOLBFb-YE-49" value="&lt;font style=&quot;font-size: 20px;&quot;&gt;U&lt;sub&gt;CE&lt;/sub&gt;&lt;/font&gt;" style="edgeLabel;html=1;align=center;verticalAlign=middle;resizable=0;points=[];labelBackgroundColor=#E6FFCC;" vertex="1" connectable="0" parent="09oOiPNTUxZqOLBFb-YE-48">
          <mxGeometry x="0.0222" y="-2" relative="1" as="geometry">
            <mxPoint x="32" y="-1" as="offset" />
          </mxGeometry>
        </mxCell>
        <mxCell id="09oOiPNTUxZqOLBFb-YE-50" value="" style="endArrow=classic;html=1;rounded=0;strokeColor=#3333FF;strokeWidth=2;" edge="1" parent="1">
          <mxGeometry width="50" height="50" relative="1" as="geometry">
            <mxPoint x="760" y="320" as="sourcePoint" />
            <mxPoint x="760" y="400" as="targetPoint" />
          </mxGeometry>
        </mxCell>
        <mxCell id="09oOiPNTUxZqOLBFb-YE-51" value="&lt;font style=&quot;font-size: 20px;&quot;&gt;U&lt;sub&gt;LED&lt;/sub&gt;&lt;/font&gt;" style="edgeLabel;html=1;align=center;verticalAlign=middle;resizable=0;points=[];labelBackgroundColor=#E6FFCC;" vertex="1" connectable="0" parent="09oOiPNTUxZqOLBFb-YE-50">
          <mxGeometry x="0.0222" y="-2" relative="1" as="geometry">
            <mxPoint x="32" y="-1" as="offset" />
          </mxGeometry>
        </mxCell>
        <mxCell id="09oOiPNTUxZqOLBFb-YE-52" value="" style="endArrow=classic;html=1;rounded=0;strokeColor=#3333FF;strokeWidth=2;" edge="1" parent="1">
          <mxGeometry width="50" height="50" relative="1" as="geometry">
            <mxPoint x="760" y="240" as="sourcePoint" />
            <mxPoint x="760" y="320" as="targetPoint" />
          </mxGeometry>
        </mxCell>
        <mxCell id="09oOiPNTUxZqOLBFb-YE-53" value="&lt;font style=&quot;font-size: 20px;&quot;&gt;U&lt;sub&gt;R&lt;/sub&gt;&lt;/font&gt;" style="edgeLabel;html=1;align=center;verticalAlign=middle;resizable=0;points=[];labelBackgroundColor=#E6FFCC;" vertex="1" connectable="0" parent="09oOiPNTUxZqOLBFb-YE-52">
          <mxGeometry x="0.0222" y="-2" relative="1" as="geometry">
            <mxPoint x="22" y="-1" as="offset" />
          </mxGeometry>
        </mxCell>
      </root>
    </mxGraphModel>
  </diagram>
</mxfile>
